<svg xmlns="http://www.w3.org/2000/svg" viewBox="18 22 64 64" role="img" aria-hidden="true"><path d="M42 37 H74 A6.5 21 0 0 1 74 79 H42 Z" fill="#D2B67F"/><path d="M42 71 H75 A6.5 21 0 0 1 72 79 H42 Z" fill="#BFA06A"/><path d="M42 37 H74 A6.5 21 0 0 1 79 45 H42 Z" fill="#DFC794"/><path d="M50 44 Q64 43.2 76 44" stroke="#C4A56E" stroke-width="1.1" fill="none"/><path d="M50 50 Q64 49.2 76 50" stroke="#C4A56E" stroke-width="1.1" fill="none"/><path d="M50 56 Q64 55.2 76 56" stroke="#C4A56E" stroke-width="1.1" fill="none"/><path d="M50 62 Q64 61.2 76 62" stroke="#C4A56E" stroke-width="1.1" fill="none"/><path d="M50 68 Q64 67.2 76 68" stroke="#C4A56E" stroke-width="1.1" fill="none"/><path d="M50 74 Q64 73.2 76 74" stroke="#C4A56E" stroke-width="1.1" fill="none"/><path d="M62.6 58.6 l2.5 -0.6" stroke="#D6BC84" stroke-width="1.1" stroke-linecap="round"/><path d="M59.1 69.5 l1.3 2.2" stroke="#D6BC84" stroke-width="1.1" stroke-linecap="round"/><path d="M53.3 75.3 l2.3 1.3" stroke="#D6BC84" stroke-width="1.1" stroke-linecap="round"/><path d="M47.3 77.9 l0.6 2.6" stroke="#D6BC84" stroke-width="1.1" stroke-linecap="round"/><path d="M37.7 78.2 l-0.2 2.6" stroke="#D6BC84" stroke-width="1.1" stroke-linecap="round"/><path d="M30.0 74.8 l-1.3 2.6" stroke="#D6BC84" stroke-width="1.1" stroke-linecap="round"/><path d="M23.8 67.7 l-1.9 1.4" stroke="#D6BC84" stroke-width="1.1" stroke-linecap="round"/><path d="M21.4 58.9 l-2.6 0.8" stroke="#D6BC84" stroke-width="1.1" stroke-linecap="round"/><path d="M22.0 53.2 l-2.6 0.1" stroke="#D6BC84" stroke-width="1.1" stroke-linecap="round"/><path d="M25.5 45.6 l-2.1 -1.1" stroke="#D6BC84" stroke-width="1.1" stroke-linecap="round"/><path d="M35.0 38.6 l-1.9 -2.6" stroke="#D6BC84" stroke-width="1.1" stroke-linecap="round"/><path d="M41.9 37.4 l0.1 -2.6" stroke="#D6BC84" stroke-width="1.1" stroke-linecap="round"/><path d="M51.5 39.7 l0.4 -1.5" stroke="#D6BC84" stroke-width="1.1" stroke-linecap="round"/><path d="M56.0 42.9 l2.3 -2.4" stroke="#D6BC84" stroke-width="1.1" stroke-linecap="round"/><path d="M61.6 51.6 l2.3 -0.2" stroke="#D6BC84" stroke-width="1.1" stroke-linecap="round"/><circle cx="42" cy="58" r="21" fill="#D4BC88"/><circle cx="41.1" cy="57" r="19.6" fill="#E6D3A6"/><path d="M42 58 m-2.5 0 a2.5 2.5 0 1 1 5 0 a5 5 0 1 1 -10 0 a7.5 7.5 0 1 1 15 0 a10 10 0 1 1 -20 0 a12.5 12.5 0 1 1 25 0 a15 15 0 1 1 -30 0 a17.5 17.5 0 1 1 35 0" stroke="#C79A60" stroke-width="1.7" fill="none" stroke-linecap="round" transform="rotate(-8 42 58)"/><path d="M27.5 52 Q31 43 40 40" stroke="#F3E7C8" stroke-width="2.4" fill="none" stroke-linecap="round"/><path d="M26 81 L35 79.5 M31 82 L40 81" stroke="#CFB277" stroke-width="1.1" stroke-linecap="round"/><path d="M0 0 C 3.6 -6.3 9.9 -8.1 14.4 -6.3 C 10.8 -0.9 5.4 1.8 0 0 Z" fill="#24603C" transform="translate(58 37) rotate(-25)"/><path d="M0 0 L 9.9 -4.95" stroke="#3F7A55" stroke-width="0.54" transform="translate(58 37) rotate(-25)"/></svg>
